<?xml version="1.0" standalone="no"?>
<!DOCTYPE svg PUBLIC "-//W3C//DTD SVG 20010904//EN"
 "http://www.w3.org/TR/2001/REC-SVG-20010904/DTD/svg10.dtd">
<svg version="1.0" xmlns="http://www.w3.org/2000/svg"
 width="260.000000pt" height="260.000000pt" viewBox="0 0 260.000000 260.000000"
 preserveAspectRatio="xMidYMid meet">
<metadata>
Created by potrace 1.11, written by Peter Selinger 2001-2013
</metadata>
<g transform="translate(0.000000,260.000000) scale(0.100000,-0.100000)"
fill="#000000" stroke="none">
<path d="M200 1840 c-75 -27 -120 -66 -155 -135 l-30 -59 0 -355 c0 -349 0
-357 22 -402 51 -102 143 -159 268 -165 189 -8 310 71 344 224 5 24 8 190 7
370 -1 284 -4 332 -19 365 -29 66 -75 114 -135 143 -77 37 -218 43 -302 14z
m167 -191 c15 -28 17 -678 3 -715 -11 -29 -55 -33 -69 -6 -6 11 -10 162 -10
365 -1 337 0 348 20 368 24 24 40 21 56 -12z"/>
<path d="M1815 1847 c-104 -35 -170 -98 -191 -183 -4 -16 -9 -175 -11 -354 -3
-270 -1 -335 12 -385 28 -107 107 -178 217 -197 57 -10 72 -9 112 6 25 10 58
31 73 47 16 16 31 29 34 29 3 0 10 -15 15 -32 l10 -33 87 -1 c56 0 87 3 88 10
4 62 2 569 -2 572 -6 3 -181 6 -285 5 l-42 -1 2 -82 1 -83 28 1 27 1 0 -97 c0
-124 -11 -160 -51 -160 -22 0 -32 6 -39 26 -6 14 -10 165 -10 357 0 343 4 377
41 383 37 5 44 -13 49 -128 l5 -113 135 0 c74 0 137 3 140 7 3 4 2 54 -2 111
-10 158 -49 222 -168 278 -56 27 -213 36 -275 16z"/>
<path d="M702 1292 l3 -547 112 -1 c62 0 117 2 123 6 7 4 9 112 8 328 -2 177
0 322 5 322 4 0 8 -10 8 -22 2 -30 4 -43 23 -178 10 -63 19 -126 21 -140 2
-14 6 -45 10 -70 4 -25 8 -56 10 -70 2 -14 9 -59 15 -101 l12 -76 87 1 86 1
26 196 c15 108 30 223 34 255 4 33 9 70 11 84 2 14 6 53 10 88 4 34 10 62 13
62 3 0 6 -154 6 -342 l0 -343 123 0 122 -1 0 548 0 547 -184 1 -184 0 -7 -63
c-4 -34 -9 -69 -10 -77 -2 -8 -6 -44 -10 -80 -4 -36 -8 -72 -10 -80 -1 -8 -6
-44 -10 -80 -9 -80 -13 -101 -20 -108 -3 -3 -5 8 -6 24 0 16 -2 38 -4 49 -2
11 -7 43 -10 70 -4 28 -8 61 -10 75 -3 14 -9 57 -14 95 -19 130 -22 150 -26
162 -3 9 -51 13 -185 12 l-180 0 2 -547z"/>
<path d="M2304 1737 c3 -56 9 -154 12 -217 3 -63 7 -143 9 -178 2 -34 7 -119
10 -189 4 -70 9 -130 12 -133 2 -3 49 -5 104 -5 93 -1 99 1 100 20 0 11 2 38
4 60 1 22 6 99 10 170 3 72 8 159 10 195 2 36 7 126 11 200 3 74 7 145 9 157
2 22 1 22 -147 22 l-150 1 6 -103z"/>
<path d="M2323 954 c-2 -6 -2 -55 -1 -110 l3 -99 123 -1 c104 0 122 2 123 15
5 95 2 194 -6 199 -18 11 -237 8 -242 -4z"/>
</g>
</svg>
