<?xml version="1.0" encoding="UTF-8" standalone="no"?>
<!-- Created with Inkscape (http://www.inkscape.org/) -->

<svg
   xmlns:dc="http://purl.org/dc/elements/1.1/"
   xmlns:cc="http://creativecommons.org/ns#"
   xmlns:rdf="http://www.w3.org/1999/02/22-rdf-syntax-ns#"
   xmlns:svg="http://www.w3.org/2000/svg"
   xmlns="http://www.w3.org/2000/svg"
   xmlns:sodipodi="http://sodipodi.sourceforge.net/DTD/sodipodi-0.dtd"
   xmlns:inkscape="http://www.inkscape.org/namespaces/inkscape"
   width="90mm"
   height="55mm"
   viewBox="0 0 318.89764 194.88189"
   id="svg2"
   version="1.1"
   inkscape:version="0.91 r13725"
   sodipodi:docname="orb.svg"
   inkscape:export-filename="/home/facutk/Desktop/orb.png"
   inkscape:export-xdpi="300"
   inkscape:export-ydpi="300">
  <defs
     id="defs4" />
  <sodipodi:namedview
     id="base"
     pagecolor="#ffffff"
     bordercolor="#666666"
     borderopacity="1.0"
     inkscape:pageopacity="0.0"
     inkscape:pageshadow="2"
     inkscape:zoom="0.94"
     inkscape:cx="40.333603"
     inkscape:cy="39.000943"
     inkscape:document-units="px"
     inkscape:current-layer="layer1"
     showgrid="false"
     showguides="true"
     inkscape:window-width="1366"
     inkscape:window-height="744"
     inkscape:window-x="0"
     inkscape:window-y="24"
     inkscape:window-maximized="1" />
  <metadata
     id="metadata7">
    <rdf:RDF>
      <cc:Work
         rdf:about="">
        <dc:format>image/svg+xml</dc:format>
        <dc:type
           rdf:resource="http://purl.org/dc/dcmitype/StillImage" />
        <dc:title></dc:title>
      </cc:Work>
    </rdf:RDF>
  </metadata>
  <g
     inkscape:label="Layer 1"
     inkscape:groupmode="layer"
     id="layer1"
     transform="translate(0,-857.48031)">
    <circle
       id="path3359"
       cx="63.435432"
       cy="857.48029"
       style="fill:none;stroke:#000000;stroke-width:1;stroke-miterlimit:4;stroke-dasharray:3, 3;stroke-dashoffset:0;stroke-opacity:1;opacity:0.15"
       r="96.607811" />
    <circle
       id="path3359-1"
       cx="257.34644"
       cy="857.48029"
       style="fill:none;stroke:#000000;stroke-width:1;stroke-miterlimit:4;stroke-dasharray:3, 3;stroke-dashoffset:0;stroke-opacity:1;opacity:0.15"
       r="96.607811" />
    <circle
       id="path3359-3"
       cx="63.28307"
       cy="1051.9867"
       style="fill:none;stroke:#000000;stroke-width:1;stroke-miterlimit:4;stroke-dasharray:3, 3;stroke-dashoffset:0;stroke-opacity:1;opacity:0.15"
       r="96.607811" />
    <circle
       id="path3359-1-5"
       cx="257.19409"
       cy="1051.9867"
       style="fill:none;stroke:#000000;stroke-width:1;stroke-miterlimit:4;stroke-dasharray:3, 3;stroke-dashoffset:0;stroke-opacity:1;opacity:0.15"
       r="96.607811" />
    <rect
       style="fill:none;stroke:#000000;stroke-width:1.04665649;stroke-miterlimit:4;stroke-dasharray:3.13996939, 3.13996939000000008;stroke-dashoffset:0;stroke-opacity:1;opacity:0.15"
       id="rect4213"
       width="317.85098"
       height="193.83524"
       x="0.52332824"
       y="858.0036" />
    <g
       transform="matrix(0.52136148,0,0,0.52823904,18.820868,808.87007)"
       style="font-style:normal;font-variant:normal;font-weight:normal;font-stretch:condensed;font-size:40px;line-height:125%;font-family:Impact;-inkscape-font-specification:'Impact, Condensed';text-align:start;letter-spacing:0px;word-spacing:0px;writing-mode:lr-tb;text-anchor:start;fill:#000000;fill-opacity:1;stroke:none;stroke-width:1px;stroke-linecap:butt;stroke-linejoin:miter;stroke-opacity:1"
       id="g4155">
      <path
         inkscape:connector-curvature="0"
         id="path3395"
         style="font-size:70px;line-height:76.99999809%;text-align:center;letter-spacing:-3.25px;word-spacing:0px;text-anchor:middle"
         d="m 237.6875,262.57765 q 0,8.33984 -0.41016,11.82617 -0.37597,3.45215 -2.46093,6.32324 -2.05079,2.87109 -5.57129,4.40918 -3.52051,1.53808 -8.20313,1.53808 -4.44336,0 -7.99804,-1.43554 -3.52051,-1.46973 -5.67383,-4.375 -2.15332,-2.90528 -2.56348,-6.32324 -0.41016,-3.41797 -0.41016,-11.96289 l 0,-9.46778 q 0,-8.33984 0.37598,-11.79199 0.41016,-3.48633 2.46094,-6.35742 2.08496,-2.8711 5.60547,-4.40918 3.5205,-1.53809 8.20312,-1.53809 4.44336,0 7.96387,1.46973 3.55469,1.43555 5.70801,4.34082 2.15332,2.90527 2.56347,6.32324 0.41016,3.41797 0.41016,11.96289 l 0,9.46778 z m -14.38965,-18.1836 q 0,-3.8623 -0.44433,-4.92187 -0.41016,-1.09375 -1.74317,-1.09375 -1.12793,0 -1.74316,0.88867 -0.58106,0.85449 -0.58106,5.12695 l 0,25.83985 q 0,4.81933 0.37598,5.94726 0.41016,1.12793 1.8457,1.12793 1.46973,0 1.87989,-1.29883 0.41015,-1.29883 0.41015,-6.18652 l 0,-25.42969 z" />
      <path
         inkscape:connector-curvature="0"
         id="path3397"
         style="font-size:70px;line-height:76.99999809%;text-align:center;letter-spacing:-3.25px;word-spacing:0px;text-anchor:middle"
         d="m 284.2373,230.1753 0,55.33692 -12.57812,0 0,-37.3584 -5.02441,37.3584 -8.9209,0 -5.29785,-36.50391 0,36.50391 -12.57813,0 0,-55.33692 18.62793,0 q 0.82031,4.99024 1.74316,11.75781 l 1.98243,14.08204 3.28125,-25.83985 18.76464,0 z" />
      <path
         inkscape:connector-curvature="0"
         id="path3399"
         style="font-size:70px;line-height:76.99999809%;text-align:center;letter-spacing:-3.25px;word-spacing:0px;text-anchor:middle"
         d="m 319.78125,250.5464 -14.38965,0 0,-5.02442 q 0,-4.75098 -0.41015,-5.94726 -0.41016,-1.19629 -1.94825,-1.19629 -1.333,0 -1.81152,1.02539 -0.47852,1.02539 -0.47852,5.26367 l 0,26.55762 q 0,3.72558 0.47852,4.92187 0.47852,1.16211 1.91406,1.16211 1.57227,0 2.11914,-1.33301 0.58106,-1.33301 0.58106,-5.19531 l 0,-6.5625 -2.90528,0 0,-8.4082 16.85059,0 0,29.70215 -9.05762,0 -1.33301,-3.96485 q -1.46972,2.56348 -3.72558,3.86231 -2.22168,1.26464 -5.26367,1.26464 -3.62305,0 -6.80176,-1.74316 -3.14453,-1.77734 -4.78516,-4.375 -1.64062,-2.59766 -2.05078,-5.43457 -0.41015,-2.87109 -0.41015,-8.5791 l 0,-16.44043 q 0,-7.92969 0.85449,-11.51856 0.85449,-3.58886 4.88769,-6.5625 4.06739,-3.00781 10.49317,-3.00781 6.32324,0 10.49316,2.59766 4.16992,2.59765 5.43457,6.18652 1.26465,3.55469 1.26465,10.35645 l 0,2.39258 z" />
      <path
         inkscape:connector-curvature="0"
         id="path3401"
         style="font-size:70px;line-height:76.99999809%;text-align:center;letter-spacing:-3.25px;word-spacing:0px;text-anchor:middle"
         d="m 336.83398,230.1753 -2.25586,41.66504 -10.66406,0 -2.25586,-41.66504 15.17578,0 z m -1.12793,44.2627 0,11.07422 -12.91992,0 0,-11.07422 12.91992,0 z" />
      <path
         inkscape:connector-curvature="0"
         id="path3403"
         style="font-size:41.25px;line-height:76.99999809%;text-align:center;letter-spacing:-1.10000002px;text-anchor:middle"
         d="m 223.42939,307.58812 q 0,4.91455 -0.24169,6.96899 -0.22156,2.0343 -1.4502,3.7262 -1.2085,1.69189 -3.28308,2.59827 -2.07459,0.90637 -4.83399,0.90637 -2.6184,0 -4.71313,-0.84595 -2.07459,-0.86609 -3.34351,-2.57813 -1.26892,-1.71203 -1.51062,-3.72619 -0.2417,-2.01416 -0.2417,-7.04956 l 0,-5.57923 q 0,-4.91455 0.22156,-6.94885 0.2417,-2.05444 1.4502,-3.74634 1.22864,-1.69189 3.30322,-2.59826 2.07459,-0.90637 4.83398,-0.90637 2.61841,0 4.693,0.86608 2.09472,0.84595 3.36365,2.55799 1.26892,1.71203 1.51062,3.72619 0.24169,2.01416 0.24169,7.04956 l 0,5.57923 z m -8.47961,-10.71533 q 0,-2.27601 -0.26184,-2.90039 -0.2417,-0.64454 -1.02722,-0.64454 -0.66468,0 -1.02722,0.52369 -0.34241,0.50354 -0.34241,3.02124 l 0,15.22705 q 0,2.83996 0.22156,3.50464 0.2417,0.66467 1.08764,0.66467 0.86609,0 1.10779,-0.76538 0.2417,-0.76538 0.2417,-3.64563 l 0,-14.98535 z" />
      <path
         inkscape:connector-curvature="0"
         id="path3405"
         style="font-size:41.25px;line-height:76.99999809%;text-align:center;letter-spacing:-1.10000002px;text-anchor:middle"
         d="m 225.51177,288.49388 6.00219,0 q 6.0022,0 8.11707,0.46326 2.13501,0.46325 3.46436,2.37671 1.34948,1.89331 1.34948,6.06262 0,3.80676 -0.94665,5.11596 -0.94666,1.30921 -3.7262,1.57105 2.5177,0.62439 3.38379,1.67175 0.86609,1.04737 1.06751,1.9336 0.22155,0.86608 0.22155,4.81384 l 0,8.60046 -7.87536,0 0,-10.83618 q 0,-2.61841 -0.42298,-3.2428 -0.40283,-0.62439 -2.15515,-0.62439 l 0,14.70337 -8.47961,0 0,-32.60925 z m 8.47961,5.57922 0,7.25098 q 1.43006,0 1.99402,-0.38269 0.58411,-0.40283 0.58411,-2.55798 l 0,-1.79261 q 0,-1.5509 -0.56397,-2.0343 -0.54382,-0.4834 -2.01416,-0.4834 z" />
      <path
         inkscape:connector-curvature="0"
         id="path3407"
         style="font-size:41.25px;line-height:76.99999809%;text-align:center;letter-spacing:-1.10000002px;text-anchor:middle"
         d="m 255.12771,288.49388 0,32.60925 -8.47961,0 0,-32.60925 8.47961,0 z" />
      <path
         inkscape:connector-curvature="0"
         id="path3409"
         style="font-size:41.25px;line-height:76.99999809%;text-align:center;letter-spacing:-1.10000002px;text-anchor:middle"
         d="m 276.92871,300.49827 -8.47961,0 0,-2.96081 q 0,-2.79968 -0.2417,-3.50464 -0.2417,-0.70496 -1.14807,-0.70496 -0.78553,0 -1.06751,0.60425 -0.28198,0.60425 -0.28198,3.10181 l 0,15.65002 q 0,2.19544 0.28198,2.90039 0.28198,0.68482 1.12793,0.68482 0.92652,0 1.24878,-0.78552 0.34241,-0.78553 0.34241,-3.06153 l 0,-3.86719 -1.71204,0 0,-4.95483 9.92981,0 0,17.50305 -5.33752,0 -0.78553,-2.33642 q -0.86608,1.51062 -2.19543,2.276 -1.3092,0.74524 -3.10181,0.74524 -2.13501,0 -4.00818,-1.02722 -1.85302,-1.04737 -2.81982,-2.57813 -0.9668,-1.53076 -1.2085,-3.20251 -0.24169,-1.6919 -0.24169,-5.05555 l 0,-9.68811 q 0,-4.67285 0.50354,-6.78772 0.50354,-2.11486 2.88024,-3.86718 2.39686,-1.77246 6.18348,-1.77246 3.72619,0 6.18347,1.53076 2.45727,1.53076 3.20251,3.64563 0.74524,2.09472 0.74524,6.1029 l 0,1.40991 z" />
      <path
         inkscape:connector-curvature="0"
         id="path3411"
         style="font-size:41.25px;line-height:76.99999809%;text-align:center;letter-spacing:-1.10000002px;text-anchor:middle"
         d="m 293.73459,288.49388 4.85413,32.60925 -8.68103,0 -0.42297,-5.8612 -3.04139,0 -0.50354,5.8612 -8.78173,0 4.3103,-32.60925 12.26623,0 z m -4.49157,20.96741 q -0.64454,-5.53894 -1.28907,-13.67615 -1.28906,9.3457 -1.61132,13.67615 l 2.90039,0 z" />
      <path
         inkscape:connector-curvature="0"
         id="path3413"
         style="font-size:41.25px;line-height:76.99999809%;text-align:center;letter-spacing:-1.10000002px;text-anchor:middle"
         d="m 325.10286,288.49388 0,32.60925 -7.41211,0 0,-22.01477 -2.96082,22.01477 -5.25696,0 -3.12194,-21.51123 0,21.51123 -7.41211,0 0,-32.60925 10.97717,0 q 0.4834,2.94067 1.02722,6.92871 l 1.16821,8.29834 1.9336,-15.22705 11.05774,0 z" />
      <path
         inkscape:connector-curvature="0"
         id="path3415"
         style="font-size:41.25px;line-height:76.99999809%;text-align:center;letter-spacing:-1.10000002px;text-anchor:middle"
         d="m 335.8864,288.49388 0,32.60925 -8.47961,0 0,-32.60925 8.47961,0 z" />
    </g>
  </g>
</svg>
